<svg width="40" height="40" viewBox="0 0 40 40" fill="none" xmlns="http://www.w3.org/2000/svg">
<path d="M0 8C0 3.58172 3.58172 0 8 0H32C36.4183 0 40 3.58172 40 8V32C40 36.4183 36.4183 40 32 40H8C3.58172 40 0 36.4183 0 32V8Z" fill="#007BFF"/>
<path d="M14.7248 18.2621L17.2766 14.8095C18.926 12.5778 19.7508 11.462 20.5202 11.6978C21.2897 11.9336 21.2897 13.3022 21.2897 16.0393V16.2974C21.2897 17.2847 21.2897 17.7783 21.6051 18.0879L21.6218 18.104C21.9441 18.4071 22.4578 18.4071 23.4854 18.4071C25.3344 18.4071 26.259 18.4071 26.5714 18.9678C26.5766 18.9771 26.5816 18.9865 26.5865 18.9959C26.8815 19.5654 26.3462 20.2896 25.2755 21.7382L22.7237 25.1906C21.0742 27.4224 20.2495 28.5382 19.48 28.3024C18.7106 28.0666 18.7106 26.698 18.7106 23.9608L18.7106 23.7028C18.7106 22.7155 18.7106 22.2219 18.3952 21.9123L18.3785 21.8962C18.0562 21.5931 17.5425 21.5931 16.515 21.5931C14.6659 21.5931 13.7414 21.5931 13.4289 21.0324C13.4237 21.0231 13.4187 21.0137 13.4138 21.0043C13.1189 20.4348 13.6542 19.7106 14.7248 18.2621Z" fill="white"/>
</svg>
