<svg width="40" height="40" viewBox="0 0 40 40" fill="none" xmlns="http://www.w3.org/2000/svg">
<path d="M0 8C0 3.58172 3.58172 0 8 0H32C36.4183 0 40 3.58172 40 8V32C40 36.4183 36.4183 40 32 40H8C3.58172 40 0 36.4183 0 32V8Z" fill="#FFA500"/>
<path fill-rule="evenodd" clip-rule="evenodd" d="M19.9998 28.3334C24.6022 28.3334 28.3332 24.6025 28.3332 20.0001C28.3332 15.3977 24.6022 11.6667 19.9998 11.6667C15.3975 11.6667 11.6665 15.3977 11.6665 20.0001C11.6665 24.6025 15.3975 28.3334 19.9998 28.3334ZM20.6248 15.0001C20.6248 14.6549 20.345 14.3751 19.9998 14.3751C19.6547 14.3751 19.3748 14.6549 19.3748 15.0001V15.264C18.0161 15.5073 16.8748 16.5281 16.8748 17.9167C16.8748 19.5144 18.3855 20.6251 19.9998 20.6251C21.1469 20.6251 21.8748 21.3799 21.8748 22.0834C21.8748 22.787 21.1469 23.5417 19.9998 23.5417C18.8528 23.5417 18.1248 22.787 18.1248 22.0834C18.1248 21.7382 17.845 21.4584 17.4998 21.4584C17.1547 21.4584 16.8748 21.7382 16.8748 22.0834C16.8748 23.4721 18.0161 24.4929 19.3748 24.7361V25.0001C19.3748 25.3453 19.6547 25.6251 19.9998 25.6251C20.345 25.6251 20.6248 25.3453 20.6248 25.0001V24.7361C21.9835 24.4929 23.1248 23.4721 23.1248 22.0834C23.1248 20.4858 21.6142 19.3751 19.9998 19.3751C18.8528 19.3751 18.1248 18.6203 18.1248 17.9167C18.1248 17.2132 18.8528 16.4584 19.9998 16.4584C21.1469 16.4584 21.8748 17.2132 21.8748 17.9167C21.8748 18.2619 22.1547 18.5417 22.4998 18.5417C22.845 18.5417 23.1248 18.2619 23.1248 17.9167C23.1248 16.5281 21.9835 15.5073 20.6248 15.264V15.0001Z" fill="white"/>
</svg>
