<svg width="40" height="40" viewBox="0 0 40 40" fill="none" xmlns="http://www.w3.org/2000/svg">
<path d="M0 8C0 3.58172 3.58172 0 8 0H32C36.4183 0 40 3.58172 40 8V32C40 36.4183 36.4183 40 32 40H8C3.58172 40 0 36.4183 0 32V8Z" fill="#0BB02F"/>
<path fill-rule="evenodd" clip-rule="evenodd" d="M17.9938 12.667C17.7908 12.8399 17.6893 12.9264 17.581 12.999C17.3325 13.1655 17.0536 13.2811 16.7602 13.339C16.6322 13.3643 16.4993 13.3749 16.2335 13.3961C15.5657 13.4494 15.2318 13.476 14.9532 13.5744C14.3088 13.802 13.802 14.3088 13.5744 14.9532C13.476 15.2318 13.4494 15.5657 13.3961 16.2335C13.3749 16.4993 13.3643 16.6322 13.339 16.7602C13.2811 17.0536 13.1655 17.3325 12.999 17.581C12.9264 17.6893 12.8399 17.7908 12.667 17.9938C12.2324 18.5036 12.0152 18.7586 11.8878 19.0252C11.5931 19.6417 11.5931 20.3585 11.8878 20.975C12.0152 21.2416 12.2324 21.4965 12.667 22.0064C12.8399 22.2093 12.9264 22.3108 12.999 22.4192C13.1655 22.6676 13.2811 22.9466 13.339 23.24C13.3643 23.368 13.3749 23.5009 13.3961 23.7667C13.4494 24.4345 13.476 24.7684 13.5744 25.047C13.802 25.6913 14.3088 26.1981 14.9532 26.4257C15.2318 26.5241 15.5657 26.5508 16.2335 26.6041C16.4993 26.6253 16.6322 26.6359 16.7602 26.6611C17.0536 26.7191 17.3325 26.8346 17.581 27.0011C17.6893 27.0738 17.7908 27.1602 17.9938 27.3332C18.5037 27.7677 18.7586 27.985 19.0252 28.1124C19.6417 28.4071 20.3585 28.4071 20.975 28.1124C21.2416 27.985 21.4965 27.7677 22.0064 27.3332C22.2094 27.1602 22.3108 27.0738 22.4192 27.0011C22.6676 26.8346 22.9466 26.7191 23.24 26.6611C23.368 26.6359 23.5009 26.6253 23.7667 26.6041C24.4345 26.5508 24.7684 26.5241 25.047 26.4257C25.6913 26.1981 26.1981 25.6913 26.4257 25.047C26.5241 24.7684 26.5508 24.4345 26.6041 23.7667C26.6253 23.5009 26.6359 23.368 26.6611 23.24C26.7191 22.9466 26.8346 22.6676 27.0011 22.4192C27.0738 22.3108 27.1602 22.2094 27.3332 22.0064C27.7677 21.4965 27.985 21.2416 28.1124 20.975C28.4071 20.3585 28.4071 19.6417 28.1124 19.0252C27.985 18.7586 27.7677 18.5037 27.3332 17.9938C27.1602 17.7908 27.0738 17.6893 27.0011 17.581C26.8346 17.3325 26.7191 17.0536 26.6611 16.7602C26.6359 16.6322 26.6253 16.4993 26.6041 16.2335C26.5508 15.5657 26.5241 15.2318 26.4257 14.9532C26.1981 14.3088 25.6913 13.802 25.047 13.5744C24.7684 13.476 24.4345 13.4494 23.7667 13.3961C23.5009 13.3749 23.368 13.3643 23.24 13.339C22.9466 13.2811 22.6676 13.1655 22.4192 12.999C22.3108 12.9264 22.2094 12.8399 22.0064 12.667C21.4965 12.2324 21.2416 12.0152 20.975 11.8878C20.3585 11.5931 19.6417 11.5931 19.0252 11.8878C18.7586 12.0152 18.5036 12.2324 17.9938 12.667ZM23.6447 18.2194C23.9095 17.9545 23.9095 17.5251 23.6447 17.2602C23.3798 16.9954 22.9504 16.9954 22.6855 17.2602L18.6436 21.3021L17.3146 19.9731C17.0498 19.7082 16.6203 19.7082 16.3555 19.9731C16.0906 20.2379 16.0906 20.6674 16.3555 20.9322L18.1641 22.7408C18.4289 23.0057 18.8583 23.0057 19.1232 22.7408L23.6447 18.2194Z" fill="white"/>
</svg>
